<?xml version="1.0" encoding="UTF-8"?><svg id="mappe" xmlns="http://www.w3.org/2000/svg" width="841.29" height="961.84" viewBox="0 0 841.29 961.84"><defs><style>.cls-1{fill:#599ecf;}.cls-2{fill:#8bcdf8;}</style></defs><path class="cls-1" d="M91.74,87.79h191.41c7.53,0,14.82,2.62,20.63,7.41l46.01,37.96c5.87,4.84,13.24,7.49,20.84,7.49h381.14c25.38,0,45.95,20.57,45.95,45.95v402.52H44.93V134.6c0-25.85,20.96-46.81,46.81-46.81Z"/><rect class="cls-2" x="44.93" y="189.42" width="752.79" height="526.23" rx="47.33" ry="47.33"/><path d="M161.97,809.42v-1.37c4.02-.39,4.17-.69,4.12-5.93l.05-19.99c-4.02,8.97-10.49,22.98-12.2,27.29h-1.27c-1.67-4.46-7.2-17.93-10.93-26.8-.83,17.15-.88,21.02-.88,21.95.05,2.74,1.27,3.14,4.61,3.48v1.37h-11.61v-1.37c2.84-.29,4.02-.88,4.41-3.53.29-2.16.34-3.92,1.62-21.8.2-2.55-.29-3.38-4.61-3.77v-1.37h8.53l10.83,24.84,11.61-24.84h8.57v1.37c-4.21.49-4.75.93-4.65,4.36l.2,18.81c.2,5.24.34,5.49,4.65,5.93v1.37h-13.03Z"/><path d="M200.38,808.29c-2.35.34-5,.98-7.5,1.71v-3.77c-2.65,2.21-4.8,3.77-7.5,3.77-3.28,0-6.12-2.01-6.12-7.35v-9.5c0-2.65-.39-2.94-1.62-3.18l-1.37-.25v-1.27c2.11-.1,5.34-.59,7.01-.88-.15,1.57-.15,3.92-.15,7.15v6.66c0,4.31,2.25,5.54,4.46,5.54,1.81,0,3.63-.78,5.29-2.35v-11.42c0-2.65-.59-2.99-2.25-3.23l-1.57-.2v-1.27c3.14-.15,6.57-.69,7.69-.88v16.41c0,2.45.39,2.79,2.25,2.89l1.37.05v1.37Z"/><path d="M202.1,809.42v-1.37c3.14-.29,3.53-.54,3.53-3.77v-23.47c0-2.99-.24-3.28-3.38-3.67v-1.27c2.65-.29,5.68-1.08,7.25-1.67v30.08c0,3.23.29,3.48,3.48,3.77v1.37h-10.88Z"/><path d="M224.88,809.37c-.83.44-1.62.64-2.11.64-3.14,0-4.8-1.91-4.8-5.83v-14.26h-3.38l-.2-.59,1.32-1.42h2.25v-4.12c.93-.98,2.35-2.25,3.28-3.23l.73.1c-.1,2.06-.15,4.9-.15,7.25h5.58c.44.49.29,1.57-.29,2.01h-5.29v12.54c0,3.97,1.57,4.7,2.84,4.7,1.18,0,2.3-.44,2.99-.78l.44,1.27-3.23,1.71Z"/><path d="M230.13,809.42v-1.37c3.09-.29,3.43-.54,3.43-3.87v-10.09c0-3.04-.15-3.23-3.09-3.72v-1.18c2.55-.44,4.85-1.08,6.96-1.96v16.95c0,3.33.34,3.58,3.53,3.87v1.37h-10.83ZM235.22,782.42c-1.37,0-2.6-1.22-2.6-2.6,0-1.57,1.23-2.69,2.65-2.69s2.5,1.13,2.5,2.69c0,1.37-1.13,2.6-2.55,2.6Z"/><path d="M270.35,809.42v-1.37c2.89-.29,3.23-.49,3.23-3.92v-8.18c0-3.48-1.18-5.68-4.21-5.68-1.86,0-3.58,1.03-5.44,2.55.05.59.15,1.18.15,2.11v9.5c0,3.09.44,3.33,3.14,3.63v1.37h-10.49v-1.37c3.04-.29,3.48-.49,3.48-3.72v-8.43c0-3.63-1.13-5.63-4.12-5.63-1.96,0-3.87,1.32-5.39,2.55v11.51c0,3.23.34,3.43,3.14,3.72v1.37h-10.53v-1.37c3.23-.29,3.53-.49,3.53-3.72v-10.14c0-3.14-.2-3.33-2.94-3.82v-1.22c2.3-.34,4.61-.98,6.81-1.96v3.97c1.03-.78,2.06-1.62,3.63-2.55,1.22-.78,2.3-1.27,3.87-1.27,2.35,0,4.36,1.47,5.34,4.02,1.37-1.08,2.65-1.91,3.87-2.74,1.08-.69,2.45-1.27,3.87-1.27,3.82,0,6.17,2.74,6.17,7.55v9.46c0,3.28.29,3.43,3.09,3.72v1.37h-10.19Z"/><path d="M301.27,805.26c-3.14,3.92-6.57,4.75-8.13,4.75-5.98,0-9.6-4.9-9.6-10.53,0-3.33,1.18-6.42,3.18-8.57,2.06-2.3,4.75-3.58,7.3-3.58,4.26,0,7.5,3.67,7.5,7.59-.05.98-.2,1.42-.98,1.62-.98.2-7.25.64-13.08.83-.15,6.57,3.87,9.26,7.35,9.26,2.01,0,3.87-.83,5.68-2.5l.78,1.13ZM292.85,789.19c-2.25,0-4.46,2.11-5.14,6.08,2.74,0,5.49,0,8.38-.15.88,0,1.18-.25,1.18-.98.05-2.6-1.67-4.95-4.41-4.95Z"/><path d="M328.76,808.2c-1.03.2-4.7.78-7.59,1.81v-3.18c-.88.54-2.16,1.22-3.04,1.76-1.96,1.13-3.28,1.42-3.87,1.42-3.92,0-9.11-3.92-9.11-10.78s5.98-11.91,12.69-11.91c.69,0,2.3.1,3.33.54v-7.2c0-3.14-.34-3.23-3.82-3.53v-1.27c2.45-.34,5.88-1.03,7.69-1.67v29.54c0,2.55.34,2.89,2.16,2.99l1.57.1v1.37ZM321.17,791.73c-1.13-1.71-3.23-2.5-5.14-2.5-2.35,0-6.52,1.57-6.52,8.62,0,5.93,3.67,9.06,6.81,9.11,1.76,0,3.67-.88,4.85-1.76v-13.47Z"/><path d="M331.07,809.42v-1.37c3.09-.29,3.43-.54,3.43-3.87v-10.09c0-3.04-.15-3.23-3.09-3.72v-1.18c2.55-.44,4.85-1.08,6.96-1.96v16.95c0,3.33.34,3.58,3.53,3.87v1.37h-10.83ZM336.16,782.42c-1.37,0-2.6-1.22-2.6-2.6,0-1.57,1.23-2.69,2.65-2.69s2.5,1.13,2.5,2.69c0,1.37-1.13,2.6-2.55,2.6Z"/><path d="M362.18,805.26c-3.14,3.92-6.57,4.75-8.13,4.75-5.98,0-9.6-4.9-9.6-10.53,0-3.33,1.18-6.42,3.18-8.57,2.06-2.3,4.75-3.58,7.3-3.58,4.26,0,7.5,3.67,7.5,7.59-.05.98-.2,1.42-.98,1.62-.98.2-7.25.64-13.08.83-.15,6.57,3.87,9.26,7.35,9.26,2.01,0,3.87-.83,5.68-2.5l.78,1.13ZM353.75,789.19c-2.25,0-4.46,2.11-5.14,6.08,2.74,0,5.49,0,8.38-.15.88,0,1.18-.25,1.18-.98.05-2.6-1.67-4.95-4.41-4.95Z"/><path d="M389.67,808.2c-1.03.2-4.7.78-7.59,1.81v-3.18c-.88.54-2.16,1.22-3.04,1.76-1.96,1.13-3.28,1.42-3.87,1.42-3.92,0-9.11-3.92-9.11-10.78s5.98-11.91,12.69-11.91c.69,0,2.3.1,3.33.54v-7.2c0-3.14-.34-3.23-3.82-3.53v-1.27c2.45-.34,5.88-1.03,7.69-1.67v29.54c0,2.55.34,2.89,2.16,2.99l1.57.1v1.37ZM382.07,791.73c-1.13-1.71-3.23-2.5-5.14-2.5-2.35,0-6.52,1.57-6.52,8.62,0,5.93,3.67,9.06,6.81,9.11,1.76,0,3.67-.88,4.85-1.76v-13.47Z"/><path d="M409.81,805.26c-3.14,3.92-6.57,4.75-8.13,4.75-5.98,0-9.6-4.9-9.6-10.53,0-3.33,1.18-6.42,3.18-8.57,2.06-2.3,4.75-3.58,7.3-3.58,4.26,0,7.5,3.67,7.5,7.59-.05.98-.2,1.42-.98,1.62-.98.2-7.25.64-13.08.83-.15,6.57,3.87,9.26,7.35,9.26,2.01,0,3.87-.83,5.68-2.5l.78,1.13ZM401.38,789.19c-2.25,0-4.46,2.11-5.14,6.08,2.74,0,5.49,0,8.38-.15.88,0,1.18-.25,1.18-.98.05-2.6-1.67-4.95-4.41-4.95Z"/><path d="M425.78,793.74c-.88-2.84-2.16-4.8-5.15-4.8-1.71,0-3.04,1.22-3.04,3.18,0,2.11,1.42,3.09,4.16,4.36,4.21,2.01,6.32,3.48,6.32,6.71,0,4.51-4.12,6.81-7.99,6.81-2.55,0-4.8-.78-5.83-1.37-.25-1.42-.69-4.12-.88-5.73l1.42-.25c.88,3.14,2.6,5.68,6.03,5.68,1.86,0,3.43-1.27,3.43-3.33,0-2.21-1.32-3.33-3.92-4.61-3.43-1.67-6.22-3.23-6.22-6.76s3.04-6.32,7.64-6.32c2.06,0,3.72.49,4.7.64.15,1.18.49,4.26.74,5.44l-1.42.34Z"/><path d="M431.22,809.42v-1.37c3.09-.29,3.43-.54,3.43-3.87v-10.09c0-3.04-.15-3.23-3.09-3.72v-1.18c2.55-.44,4.85-1.08,6.96-1.96v16.95c0,3.33.34,3.58,3.53,3.87v1.37h-10.83ZM436.31,782.42c-1.37,0-2.6-1.22-2.6-2.6,0-1.57,1.23-2.69,2.65-2.69s2.5,1.13,2.5,2.69c0,1.37-1.13,2.6-2.55,2.6Z"/><path d="M450.92,802.27c-1.18.93-1.62,1.86-1.62,2.45,0,.88.83,1.86,3.04,1.86,1.81,0,3.87-.05,5.49-.05,3.14,0,7.15,1.03,7.15,5.88,0,5.1-6.03,9.9-12.54,9.9-5.54,0-8.53-3.23-8.62-6.12,0-1.08.44-2.01,1.22-2.79.98-1.03,2.89-2.65,4.02-3.53-1.76-.49-3.04-1.62-3.67-2.65-.44-.73-.59-1.62-.59-2.11,1.86-.69,3.53-2.06,4.51-3.38l1.62.54ZM453.27,802.76c-4.56,0-8.33-2.79-8.33-7.4,0-5.59,5-8.18,8.82-8.18,1.62,0,3.23.44,4.7,1.22,2.25,0,5.19-.39,6.57-.73l.29.44c-.29.78-1.08,2.16-1.81,2.6-.73,0-2.35-.2-3.04-.25.83,1.13,1.42,2.7,1.42,4.46,0,5.34-4.41,7.84-8.62,7.84ZM454.4,810.01c-2.4,0-3.48.29-4.36,1.03-1.37,1.13-2.35,2.6-2.35,4.02,0,2.69,2.79,4.7,6.57,4.7,4.65,0,7.3-2.4,7.3-5.54,0-1.67-.78-2.99-2.16-3.58-1.23-.54-2.94-.64-5-.64ZM453.27,788.75c-2.21,0-4.16,2.01-4.16,5.88s1.96,6.57,4.65,6.57c2.16-.1,4.07-1.91,4.07-5.88s-1.81-6.57-4.56-6.57Z"/><path d="M481.05,809.42v-1.37c2.84-.29,3.14-.64,3.14-3.97v-8.08c0-3.43-1.22-5.73-4.46-5.73-2.01,0-3.92,1.18-5.44,2.55v11.46c0,3.38.29,3.48,3.18,3.77v1.37h-10.58v-1.37c3.23-.34,3.53-.54,3.53-3.77v-10.09c0-3.19-.34-3.33-2.99-3.77v-1.27c2.4-.39,4.8-1.03,6.86-1.96v3.87c.98-.69,2.06-1.42,3.33-2.25,1.37-.88,2.65-1.47,4.07-1.47,3.92,0,6.37,2.89,6.37,7.64v9.31c0,3.33.29,3.48,3.14,3.77v1.37h-10.14Z"/><path d="M506.34,793.74c-.88-2.84-2.16-4.8-5.15-4.8-1.71,0-3.04,1.22-3.04,3.18,0,2.11,1.42,3.09,4.16,4.36,4.21,2.01,6.32,3.48,6.32,6.71,0,4.51-4.12,6.81-7.99,6.81-2.55,0-4.8-.78-5.83-1.37-.25-1.42-.69-4.12-.88-5.73l1.42-.25c.88,3.14,2.6,5.68,6.03,5.68,1.86,0,3.43-1.27,3.43-3.33,0-2.21-1.32-3.33-3.92-4.61-3.43-1.67-6.22-3.23-6.22-6.76s3.04-6.32,7.64-6.32c2.06,0,3.72.49,4.7.64.15,1.18.49,4.26.74,5.44l-1.42.34Z"/><path d="M520.99,809.37c-.83.44-1.62.64-2.11.64-3.14,0-4.8-1.91-4.8-5.83v-14.26h-3.38l-.2-.59,1.32-1.42h2.25v-4.12c.93-.98,2.35-2.25,3.28-3.23l.73.1c-.1,2.06-.15,4.9-.15,7.25h5.58c.44.49.29,1.57-.29,2.01h-5.29v12.54c0,3.97,1.57,4.7,2.84,4.7,1.18,0,2.3-.44,2.99-.78l.44,1.27-3.23,1.71Z"/><path d="M549.31,808.29c-2.35.34-5,.98-7.5,1.71v-3.77c-2.65,2.21-4.8,3.77-7.5,3.77-3.28,0-6.12-2.01-6.12-7.35v-9.5c0-2.65-.39-2.94-1.62-3.18l-1.37-.25v-1.27c2.11-.1,5.34-.59,7.01-.88-.15,1.57-.15,3.92-.15,7.15v6.66c0,4.31,2.25,5.54,4.46,5.54,1.81,0,3.63-.78,5.29-2.35v-11.42c0-2.65-.59-2.99-2.25-3.23l-1.57-.2v-1.27c3.14-.15,6.57-.69,7.69-.88v16.41c0,2.45.39,2.79,2.25,2.89l1.37.05v1.37Z"/><path d="M575.42,808.2c-1.03.2-4.7.78-7.59,1.81v-3.18c-.88.54-2.16,1.22-3.04,1.76-1.96,1.13-3.28,1.42-3.87,1.42-3.92,0-9.11-3.92-9.11-10.78s5.98-11.91,12.69-11.91c.69,0,2.3.1,3.33.54v-7.2c0-3.14-.34-3.23-3.82-3.53v-1.27c2.45-.34,5.88-1.03,7.69-1.67v29.54c0,2.55.34,2.89,2.16,2.99l1.57.1v1.37ZM567.83,791.73c-1.13-1.71-3.23-2.5-5.14-2.5-2.35,0-6.52,1.57-6.52,8.62,0,5.93,3.67,9.06,6.81,9.11,1.76,0,3.67-.88,4.85-1.76v-13.47Z"/><path d="M595.56,805.26c-3.14,3.92-6.57,4.75-8.13,4.75-5.98,0-9.6-4.9-9.6-10.53,0-3.33,1.18-6.42,3.18-8.57,2.06-2.3,4.75-3.58,7.3-3.58,4.26,0,7.5,3.67,7.5,7.59-.05.98-.2,1.42-.98,1.62-.98.2-7.25.64-13.08.83-.15,6.57,3.87,9.26,7.35,9.26,2.01,0,3.87-.83,5.68-2.5l.78,1.13ZM587.14,789.19c-2.25,0-4.46,2.11-5.14,6.08,2.74,0,5.49,0,8.38-.15.88,0,1.18-.25,1.18-.98.05-2.6-1.67-4.95-4.41-4.95Z"/><path d="M610.02,809.42h-11.27v-1.37c3.09-.29,3.38-.54,3.38-3.72v-10.19c0-3.23-.2-3.38-3.04-3.72v-1.22c2.4-.39,4.61-.98,6.91-2.01v5.39c1.71-2.55,3.77-5.24,6.22-5.24,1.81,0,2.84,1.13,2.84,2.35,0,1.13-.78,2.2-1.67,2.69-.49.29-.88.25-1.27-.1-.74-.74-1.32-1.22-2.21-1.22-1.03,0-2.84,1.52-3.92,4.02v9.21c0,3.23.25,3.48,4.02,3.77v1.37Z"/><path d="M634.52,805.26c-3.14,3.92-6.57,4.75-8.13,4.75-5.98,0-9.6-4.9-9.6-10.53,0-3.33,1.18-6.42,3.18-8.57,2.06-2.3,4.75-3.58,7.3-3.58,4.26,0,7.5,3.67,7.5,7.59-.05.98-.2,1.42-.98,1.62-.98.2-7.25.64-13.08.83-.15,6.57,3.87,9.26,7.35,9.26,2.01,0,3.87-.83,5.68-2.5l.78,1.13ZM626.09,789.19c-2.25,0-4.46,2.11-5.14,6.08,2.74,0,5.49,0,8.38-.15.88,0,1.18-.25,1.18-.98.05-2.6-1.67-4.95-4.41-4.95Z"/><path d="M651.77,809.42v-1.37c2.84-.29,3.14-.64,3.14-3.97v-8.08c0-3.43-1.22-5.73-4.46-5.73-2.01,0-3.92,1.18-5.44,2.55v11.46c0,3.38.29,3.48,3.18,3.77v1.37h-10.58v-1.37c3.23-.34,3.53-.54,3.53-3.77v-10.09c0-3.19-.34-3.33-2.99-3.77v-1.27c2.4-.39,4.8-1.03,6.86-1.96v3.87c.98-.69,2.06-1.42,3.33-2.25,1.37-.88,2.65-1.47,4.07-1.47,3.92,0,6.37,2.89,6.37,7.64v9.31c0,3.33.29,3.48,3.14,3.77v1.37h-10.14Z"/><path d="M688.46,808.2c-1.03.2-4.7.78-7.59,1.81v-3.18c-.88.54-2.16,1.22-3.04,1.76-1.96,1.13-3.28,1.42-3.87,1.42-3.92,0-9.11-3.92-9.11-10.78s5.98-11.91,12.69-11.91c.69,0,2.3.1,3.33.54v-7.2c0-3.14-.34-3.23-3.82-3.53v-1.27c2.45-.34,5.88-1.03,7.69-1.67v29.54c0,2.55.34,2.89,2.16,2.99l1.57.1v1.37ZM680.87,791.73c-1.13-1.71-3.23-2.5-5.14-2.5-2.35,0-6.52,1.57-6.52,8.62,0,5.93,3.67,9.06,6.81,9.11,1.76,0,3.67-.88,4.85-1.76v-13.47Z"/><path d="M708.61,805.26c-3.14,3.92-6.57,4.75-8.13,4.75-5.98,0-9.6-4.9-9.6-10.53,0-3.33,1.18-6.42,3.18-8.57,2.06-2.3,4.75-3.58,7.3-3.58,4.26,0,7.5,3.67,7.5,7.59-.05.98-.2,1.42-.98,1.62-.98.2-7.25.64-13.08.83-.15,6.57,3.87,9.26,7.35,9.26,2.01,0,3.87-.83,5.68-2.5l.78,1.13ZM700.18,789.19c-2.25,0-4.46,2.11-5.14,6.08,2.74,0,5.49,0,8.38-.15.88,0,1.18-.25,1.18-.98.05-2.6-1.67-4.95-4.41-4.95Z"/><path d="M332.38,833.77c8.04,0,13.07,4.34,13.07,11.52,0,5.5-2.32,10.54-6.84,13.46-3.61,2.32-6.58,2.97-11.61,2.97h-10.02l.13-.52c3.35-.6,3.61-.86,4.21-4.04l3.57-18.83c.6-3.22.47-3.44-2.92-4.04l.09-.52h10.32ZM324.34,856.86c-.69,3.7,1.89,3.91,4.47,3.91,8.86,0,13.37-7.65,13.37-15.57,0-6.97-3.78-10.62-10.41-10.62-2.75,0-3.35.47-3.7,2.37l-3.74,19.91Z"/><path d="M355.38,858.24c-2.02,2.75-4.13,4-5.2,4s-1.33-1.2-.52-4.51c1.12-4.47,1.81-7.35,2.45-10.19.34-1.55.34-2.02,0-2.02s-1.25.52-2.75,1.94l-.3-.52c1.81-1.98,4-3.7,5.29-3.7,1.12,0,.95,1.55.13,4.86-.82,3.48-1.63,6.88-2.41,10.36-.21.95-.09,1.33.17,1.33.6,0,1.72-.73,2.84-2.02l.3.47ZM356.76,835.79c0,1.25-.9,2.15-1.85,2.15s-1.5-.73-1.5-1.55c0-1.12.73-2.19,1.98-2.19.99,0,1.38.73,1.38,1.59Z"/><path d="M363.04,857.34c-.34.34-1.08,1.08-1.08,1.76,0,.86,1.38,1.76,3.4,2.84,4.73,2.54,5.76,4.13,5.76,5.76,0,3.53-6.15,6.28-10.23,6.28-3.7,0-7.4-2.11-7.4-4.86,0-2.02,3.57-4.3,7.83-6.58-1.33-.9-1.72-1.59-1.72-2.19s.99-1.72,2.75-3.01h.69ZM368.58,868.77c0-1.08-.56-1.98-1.98-2.97-1.72-1.12-3.83-2.32-4.73-2.79-2.92,1.59-5.5,3.53-5.5,5.46,0,2.37,3.1,4.13,6.19,4.13,4.13,0,6.02-1.85,6.02-3.83ZM358.74,852.86c0-3.87,2.32-7.05,4.9-8.47,1.29-.73,2.79-1.16,3.83-1.16,1.29,0,2.11.34,3.05,1.16,1.81.13,3.44-.3,4.47-1.07l.26.43c-1.16,1.63-2.92,2.32-4.04,2.32.13.6.21.99.21,1.85,0,3.78-2.02,6.19-3.57,7.48-1.59,1.2-4,2.32-5.5,2.28-2.41-.09-3.61-2.37-3.61-4.82ZM368.89,848.56c0-2.58-1.08-4.13-3.01-4.13-2.37,0-4.51,3.05-4.51,7.87,0,2.67,1.2,3.96,2.88,3.96,2.45,0,4.64-3.05,4.64-7.7Z"/><path d="M382.39,858.24c-2.02,2.75-4.13,4-5.2,4s-1.33-1.2-.52-4.51c1.12-4.47,1.81-7.35,2.45-10.19.34-1.55.34-2.02,0-2.02s-1.25.52-2.75,1.94l-.3-.52c1.81-1.98,4-3.7,5.29-3.7,1.12,0,.95,1.55.13,4.86-.82,3.48-1.63,6.88-2.41,10.36-.21.95-.09,1.33.17,1.33.6,0,1.72-.73,2.84-2.02l.3.47ZM383.76,835.79c0,1.25-.9,2.15-1.85,2.15s-1.5-.73-1.5-1.55c0-1.12.73-2.19,1.98-2.19.99,0,1.38.73,1.38,1.59Z"/><path d="M395.76,844.78c-1.25.04-2.62.13-3.91.13-2.41,11.48-2.24,10.66-2.58,12.43-.34,2.02-.17,2.62.47,2.62.69,0,1.76-.69,3.44-2.41l.3.34c-1.25,1.85-3.87,4.34-5.55,4.34-1.5,0-2.02-1.07-.95-6.15l2.41-11.18h-3.05l-.09-.26.99-.9h2.41l.95-4.26c.69-.43,1.89-1.33,2.67-2.11l.34.13c-.43,1.59-.99,3.96-1.5,6.24h4.39l-.73,1.03Z"/><path d="M412.57,858.37c-1.93,2.67-3.7,3.87-4.94,3.87-1.38,0-1.25-1.89-.56-5.29l.56-2.8c-2.41,3.74-4.6,5.55-5.5,6.32-1.72,1.42-2.58,1.76-3.48,1.76-1.42,0-2.49-1.63-2.49-4.6,0-4.26,2.06-8.77,4.99-11.39,2.24-1.89,4.9-3.01,7.31-3.01,1.42,0,3.27.56,4,.69-.64,2.11-2.06,8.04-3.14,14.23-.21,1.25-.09,1.68.3,1.68.6,0,1.5-.69,2.67-1.98l.3.52ZM405.52,855.83c1.16-1.46,2.37-3.31,2.88-5.46.34-1.55.9-4.08,1.16-5.16-.6-.3-2.02-.6-3.27-.6-4.64,0-7.27,6.36-7.27,12.08,0,2.49.73,3.27,1.42,3.27,1.2,0,2.97-1.42,5.07-4.13Z"/><path d="M421.99,858.24c-1.98,2.75-4,4-5.03,4s-1.38-1.2-.64-4.51c1.5-7.31,3.35-16.12,4.64-22.53.43-2.28.26-2.49-1.46-2.71-.39-.04-.73-.04-1.12-.09l.13-.52c2.28-.3,3.61-.64,4.82-1.12.52-.17.69-.26.9-.26.26,0,.3.21.09,1.12-1.94,8.56-4.86,22.66-5.63,26.83-.22.95-.04,1.38.26,1.38.56,0,1.63-.77,2.75-2.06l.3.47Z"/><path d="M449.55,858.24c-1.98,2.75-4.08,4-4.99,4-1.2,0-1.5-1.25-.73-5.03l.56-2.67c-3.31,4.86-6.92,7.7-9.07,7.7-1.59,0-2.75-1.68-2.75-5.03,0-3.96,1.76-8.6,4.73-11.14,2.06-1.81,4.9-2.84,6.62-2.84,1.25,0,2.15.13,2.79.47l1.63-8.77c.39-1.98.21-2.11-1.5-2.28-.43,0-.99,0-1.38-.04l.09-.52c2.06-.3,3.57-.64,4.9-1.12.6-.21.9-.3,1.12-.3s.3.26.09,1.12c-2.02,8.69-5.2,24.64-5.46,26.36-.17,1.25-.09,1.68.21,1.68.56,0,1.68-.77,2.79-2.06l.34.47ZM443.32,854.67c1.25-1.81,1.5-2.67,1.93-4.47l1.03-4.47c-.52-.6-2.19-1.2-4.13-1.2-4.73,0-6.75,7.09-6.75,11.95,0,2.32.56,3.66,1.68,3.66,1.42,0,3.66-1.68,6.24-5.46Z"/><path d="M456.65,862.24c-1.72,0-4.26-1.07-4.26-6.15,0-3.53,1.38-8.13,4.77-10.75,1.46-1.16,3.78-2.11,5.29-2.11,1.81,0,2.84,1.42,2.84,2.88,0,3.78-5.38,5.76-10.06,6.79-.09.77-.13,1.72-.13,2.02,0,2.54.82,5.38,3.44,5.38,1.63,0,3.57-1.03,5.55-3.22l.34.56c-2.54,3.18-5.42,4.6-7.78,4.6ZM455.4,851.92c5.93-.95,7.44-3.1,7.44-5.25,0-1.12-.73-2.02-2.19-2.02-2.02,0-4.3,1.81-5.25,7.27Z"/><path d="M478.02,845.12c0,.64-.69,1.63-1.25,1.63-.3,0-.39-.3-.99-.82-.6-.6-1.42-1.12-2.36-1.12-1.42,0-2.54,1.29-2.54,2.84s1.33,2.45,2.97,3.87c2.45,2.02,2.97,3.18,2.97,4.6,0,2.84-4.51,6.11-7.35,6.11-1.72,0-3.44-1.25-3.44-2.58,0-.64.77-1.76,1.38-1.76.17,0,.26.04.43.21,1.33,1.94,2.58,2.45,3.7,2.45,1.38,0,3.05-1.2,3.05-2.88,0-1.12-.43-2.06-2.28-3.66-1.63-1.42-3.44-2.71-3.44-4.69,0-1.16.43-2.62,2.15-4.13.99-.9,2.75-1.98,4.26-1.98,1.63,0,2.75.9,2.75,1.89Z"/><path d="M487.13,858.24c-2.02,2.75-4.13,4-5.2,4s-1.33-1.2-.52-4.51c1.12-4.47,1.81-7.35,2.45-10.19.34-1.55.34-2.02,0-2.02s-1.25.52-2.75,1.94l-.3-.52c1.81-1.98,4-3.7,5.29-3.7,1.12,0,.95,1.55.13,4.86-.82,3.48-1.63,6.88-2.41,10.36-.21.95-.09,1.33.17,1.33.6,0,1.72-.73,2.84-2.02l.3.47ZM488.51,835.79c0,1.25-.9,2.15-1.85,2.15s-1.5-.73-1.5-1.55c0-1.12.73-2.19,1.98-2.19.99,0,1.38.73,1.38,1.59Z"/><path d="M494.79,857.34c-.34.34-1.08,1.08-1.08,1.76,0,.86,1.38,1.76,3.4,2.84,4.73,2.54,5.76,4.13,5.76,5.76,0,3.53-6.15,6.28-10.23,6.28-3.7,0-7.4-2.11-7.4-4.86,0-2.02,3.57-4.3,7.83-6.58-1.33-.9-1.72-1.59-1.72-2.19s.99-1.72,2.75-3.01h.69ZM500.33,868.77c0-1.08-.56-1.98-1.98-2.97-1.72-1.12-3.83-2.32-4.73-2.79-2.92,1.59-5.5,3.53-5.5,5.46,0,2.37,3.1,4.13,6.19,4.13,4.13,0,6.02-1.85,6.02-3.83ZM490.49,852.86c0-3.87,2.32-7.05,4.9-8.47,1.29-.73,2.79-1.16,3.83-1.16,1.29,0,2.11.34,3.05,1.16,1.81.13,3.44-.3,4.47-1.07l.26.43c-1.16,1.63-2.92,2.32-4.04,2.32.13.6.21.99.21,1.85,0,3.78-2.02,6.19-3.57,7.48-1.59,1.2-4,2.32-5.5,2.28-2.41-.09-3.61-2.37-3.61-4.82ZM500.63,848.56c0-2.58-1.08-4.13-3.01-4.13-2.37,0-4.51,3.05-4.51,7.87,0,2.67,1.2,3.96,2.88,3.96,2.45,0,4.64-3.05,4.64-7.7Z"/><path d="M524.41,858.28c-2.02,2.67-4,3.96-5.07,3.96-1.16,0-1.46-1.2-.64-4.51.82-3.4,1.33-5.68,2.06-8.73.56-2.71.56-3.7-.6-3.7-1.76,0-5.25,3.27-7.61,7.35-.77,1.38-1.12,2.37-1.46,3.7-.34,1.38-.77,3.48-1.16,5.16-.95.17-1.72.43-2.45.69l-.26-.21c1.16-4.82,2.37-9.63,3.4-14.45.34-1.55.17-1.89-.17-1.89-.39,0-1.2.47-2.58,1.85l-.34-.47c2.02-2.62,4.04-3.78,4.94-3.78,1.2,0,1.25,1.55.21,5.76l-.73,3.05c2.97-4.6,7.35-8.81,10.1-8.81,1.59,0,2.37.95.99,6.66-.73,2.92-1.25,5.42-1.89,8.08-.26,1.42-.17,1.98.21,1.98.6,0,1.55-.82,2.75-2.19l.3.52Z"/></svg>