<?xml version="1.0" encoding="UTF-8"?><svg id="mappe" xmlns="http://www.w3.org/2000/svg" width="1219.38" height="1111.1" viewBox="0 0 1219.38 1111.1"><defs><style>.cls-1{fill:none;}.cls-2{fill:#599ecf;}.cls-3{fill:#8bcdf8;}</style></defs><path class="cls-2" d="M280.1,261.19h191.41c7.53,0,14.82,2.62,20.63,7.41l46.01,37.96c5.87,4.84,13.24,7.49,20.84,7.49h381.14c25.38,0,45.95,20.57,45.95,45.95v402.52H233.29v-454.52c0-25.85,20.96-46.81,46.81-46.81Z"/><rect class="cls-1" x="-62.67" y="59.42" width="1344.73" height="523.14"/><path d="M423,142.8c-2.33,8.21-6.65,20.51-9.15,25.81-4.82,1.03-17.8,4.1-30.44,4.1-39.75,0-60.04-27.18-60.04-57.1,0-34.87,25.78-58.98,63.04-58.98,14.3,0,25.95,3.08,31.43,3.93.67,7.69,1.83,17.95,3.16,26.5l-5.16,1.2c-3.33-11.45-7.32-18.46-15.8-22.05-4.32-2.05-11.14-3.25-17.46-3.25-27.44,0-41.91,20.86-41.91,49.06,0,32.99,16.63,54.19,43.58,54.19,16.96,0,25.28-8.03,33.76-25.13l4.99,1.71Z"/><path d="M490.36,172.2c-2.5,0-6.15-1.37-7.82-3.25-2.16-2.22-3.16-4.62-3.99-7.69-6.65,4.62-14.8,10.94-19.96,10.94-11.81,0-20.29-10.09-20.29-21.03,0-8.38,4.49-13.85,13.64-17.09,10.15-3.59,22.62-8.03,26.28-11.11v-3.42c0-12.14-5.99-19.15-14.64-19.15-3.83,0-6.15,1.88-7.82,3.93-1.83,2.39-2.99,6.15-4.49,11.11-.83,2.74-2.33,3.93-4.82,3.93-3.16,0-7.32-3.42-7.32-7.52,0-2.39,2.16-4.44,5.49-6.84,4.82-3.59,14.47-9.91,23.95-11.97,4.99,0,10.15,1.54,13.97,4.62,5.82,5.13,8.48,10.94,8.48,19.83v32.99c0,7.86,2.83,10.26,5.82,10.26,2,0,4.16-.85,5.99-1.88l1.66,4.79-14.14,8.55ZM478.22,128.95c-3.66,1.88-11.64,5.47-15.47,7.18-6.32,2.91-10.15,6.15-10.15,12.48,0,9.06,6.65,13.16,11.97,13.16,4.32,0,10.31-2.73,13.64-6.15v-26.67Z"/><path d="M549.73,170.15h-38.25v-4.79c10.48-1.03,11.48-1.88,11.48-12.99v-35.56c0-11.28-.67-11.8-10.31-12.99v-4.27c8.15-1.37,15.63-3.42,23.45-7.01v18.8c5.82-8.89,12.81-18.29,21.12-18.29,6.15,0,9.65,3.93,9.65,8.21,0,3.93-2.66,7.69-5.65,9.4-1.66,1.03-2.99.85-4.32-.34-2.5-2.56-4.49-4.27-7.48-4.27-3.49,0-9.65,5.3-13.31,14.02v32.14c0,11.28.83,12.14,13.64,13.16v4.79Z"/><path d="M609.61,93.05c20.79,0,36.26,16.24,36.26,38.29,0,27.69-19.96,40.86-36.26,40.86-22.95,0-36.92-18.97-36.92-38.12,0-27.86,21.12-41.03,36.92-41.03ZM607.61,98.87c-10.15,0-19.29,10.09-19.29,29.92,0,21.71,9.31,37.44,22.95,37.44,10.31,0,18.96-7.69,18.96-31.11,0-20-7.98-36.24-22.62-36.24Z"/><path d="M655.18,170.15v-4.79c10.64-1.03,11.97-1.88,11.97-13.16v-81.88c0-10.43-.83-11.45-11.48-12.82v-4.44c8.98-1.03,19.29-3.76,24.62-5.81v104.96c0,11.28,1,12.14,11.81,13.16v4.79h-36.92Z"/><path d="M700.75,170.15v-4.79c10.48-1.03,11.64-1.88,11.64-13.5v-35.21c0-10.6-.5-11.28-10.48-12.99v-4.1c8.65-1.54,16.47-3.76,23.62-6.84v59.15c0,11.62,1.16,12.48,11.97,13.5v4.79h-36.76ZM718.05,75.96c-4.66,0-8.82-4.27-8.82-9.06,0-5.47,4.16-9.4,8.98-9.4s8.48,3.93,8.48,9.4c0,4.79-3.83,9.06-8.65,9.06Z"/><path d="M793.72,170.15v-4.79c9.65-1.03,10.64-2.22,10.64-13.85v-28.21c0-11.97-4.16-20-15.13-20-6.82,0-13.31,4.1-18.46,8.89v40c0,11.8,1,12.14,10.81,13.16v4.79h-35.92v-4.79c10.98-1.2,11.97-1.88,11.97-13.16v-35.21c0-11.11-1.16-11.62-10.15-13.16v-4.44c8.15-1.37,16.3-3.59,23.29-6.84v13.5c3.33-2.39,6.99-4.96,11.31-7.86,4.66-3.08,8.98-5.13,13.8-5.13,13.31,0,21.62,10.09,21.62,26.67v32.48c0,11.62,1,12.14,10.64,13.16v4.79h-34.43Z"/><path d="M898.34,155.62c-10.64,13.68-22.29,16.58-27.61,16.58-20.29,0-32.6-17.09-32.6-36.75,0-11.62,3.99-22.39,10.81-29.92,6.99-8.03,16.13-12.48,24.78-12.48,14.47,0,25.45,12.82,25.45,26.5-.17,3.42-.67,4.96-3.33,5.64-3.33.68-24.62,2.22-44.41,2.91-.5,22.91,13.14,32.31,24.95,32.31,6.82,0,13.14-2.91,19.29-8.72l2.66,3.93ZM869.73,99.55c-7.65,0-15.13,7.35-17.46,21.2,9.31,0,18.63,0,28.44-.51,2.99,0,3.99-.85,3.99-3.42.17-9.06-5.65-17.27-14.97-17.27Z"/><path d="M148.61,307.18c23.08,4.14,39.34,15.03,39.34,35.72,0,13.5-8.57,26.14-21.1,33.11-11.21,6.1-25.5,9.15-41.76,9.15h-61.54v-8.06c16.92-1.74,18.68-2.83,18.68-21.13v-82.98c0-18.3-2.86-20.26-18.46-21.34v-8.06h66.82c16.7,0,27.25,2.18,36.04,7.62,8.13,5.23,13.41,13.5,13.41,24.18,0,18.08-17.14,28.97-31.43,31.8ZM120.69,304.34c20.88,0,28.57-8.93,28.57-25.05,0-18.95-12.53-26.14-24.62-26.14-5.28,0-8.57.65-10.33,1.74-2.42,1.52-2.2,3.48-2.2,8.06v41.38h8.57ZM112.12,355.53c0,15.68,7.25,20.47,19.12,20.26,12.09-.22,23.96-10.67,23.96-30.93s-10.77-31.15-35.39-31.15h-7.69v41.82Z"/><path d="M285.31,240.53c40.66,0,73.85,29.4,73.85,72.31,0,46.39-33.41,75.58-74.95,75.58-43.96,0-75.83-31.8-75.83-73.84,0-37.24,26.81-74.05,76.93-74.05ZM282.01,250.11c-22.42,0-38.9,21.78-38.9,60.33s14.73,68.39,44.4,68.39c20.88,0,37.14-20.04,37.14-59.9,0-43.12-17.14-68.83-42.64-68.83Z"/><path d="M493.22,385.15v-8.06c16.7-1.74,17.8-3.27,17.8-22.87l-.22-84.94c-15.82,37.46-33.19,78.84-49.01,115.87h-7.25c-14.29-35.5-29.89-76.01-45.72-114.13-2.86,68.39-2.86,81.89-2.86,89.74.22,11.76,4.62,14.81,21.1,16.34v8.06h-54.51v-8.06c12.53-1.09,18.24-3.48,20-16.55.88-6.53,1.76-18.95,6.81-90.82.66-10.45-.88-16.34-19.78-18.08v-8.06h47.47l42.42,96.05,42.64-96.05h46.38v8.06c-17.58,1.74-19.56,3.48-19.12,20.91l1.76,81.68c.22,19.6,1.1,20.47,18.9,22.87v8.06h-66.82Z"/><path d="M734.09,251.64c-17.14,1.74-18.68,3.05-18.68,21.13v83.42c0,18.08,1.76,19.38,18.68,20.91v8.06h-67.91v-8.06c17.36-2.18,18.68-2.83,18.68-20.91v-40.95h-59.34v40.95c0,18.08,1.98,19.17,18.46,20.91v8.06h-67.7v-8.06c16.26-1.74,18.68-2.83,18.68-20.91v-83.42c0-18.08-1.98-19.82-18.68-21.13v-8.06h67.7v8.06c-16.7,1.52-18.46,3.05-18.46,21.13v31.15h59.34v-31.15c0-18.08-2.2-19.38-18.68-21.13v-8.06h67.91v8.06Z"/><path d="M830.13,240.53c40.66,0,73.85,29.4,73.85,72.31,0,46.39-33.41,75.58-74.95,75.58-43.96,0-75.83-31.8-75.83-73.84,0-37.24,26.81-74.05,76.92-74.05ZM826.83,250.11c-22.42,0-38.9,21.78-38.9,60.33s14.73,68.39,44.4,68.39c20.88,0,37.14-20.04,37.14-59.9,0-43.12-17.14-68.83-42.64-68.83Z"/><path d="M1039.58,346.82c-1.76,9.37-7.91,32.45-9.89,38.33h-109.01v-8.06c19.34-1.31,21.1-2.83,21.1-21.13v-82.98c0-18.3-2.2-20.04-18.68-21.34v-8.06h68.57v8.06c-17.14,1.52-19.34,3.05-19.34,21.34v84.51c0,11.98.44,17.42,12.53,17.64.44.22,10.55.22,11.43.22,12.53,0,15.83-2.61,21.1-8.49,4.18-4.36,9.89-13.72,13.85-22.65l8.35,2.61Z"/><path d="M1150.79,281.26c-2.42-10.02-7.25-18.3-9.45-21.34-3.96-4.57-5.71-6.32-18.68-6.32h-14.07v102.37c0,18.3,2.2,19.6,21.76,21.13v8.06h-72.97v-8.06c18.68-1.52,20.66-2.83,20.66-21.13v-102.37h-13.41c-12.31,0-15.82,1.96-20,7.19-3.08,4.14-6.15,11.98-9.01,20.69h-8.35c1.54-15.9,3.08-32.89,3.52-43.34h6.59c3.3,5.01,5.93,5.44,12.53,5.44h87.92c5.93,0,9.01-1.31,12.75-5.44h6.37c.22,9.15,1.1,28.31,2.2,42.47l-8.35.65Z"/><rect class="cls-3" x="233.29" y="362.82" width="752.79" height="526.23" rx="47.33" ry="47.33"/><path d="M350.33,982.82v-1.37c4.02-.39,4.17-.69,4.12-5.93l.05-19.99c-4.02,8.97-10.49,22.98-12.2,27.29h-1.27c-1.67-4.46-7.2-17.93-10.93-26.8-.83,17.15-.88,21.02-.88,21.95.05,2.74,1.27,3.14,4.61,3.48v1.37h-11.61v-1.37c2.84-.29,4.02-.88,4.41-3.53.29-2.16.34-3.92,1.62-21.8.2-2.55-.29-3.38-4.61-3.77v-1.37h8.53l10.83,24.84,11.61-24.84h8.57v1.37c-4.21.49-4.75.93-4.65,4.36l.2,18.81c.2,5.24.34,5.49,4.65,5.93v1.37h-13.03Z"/><path d="M388.75,981.69c-2.35.34-5,.98-7.5,1.71v-3.77c-2.65,2.21-4.8,3.77-7.5,3.77-3.28,0-6.12-2.01-6.12-7.35v-9.5c0-2.65-.39-2.94-1.62-3.18l-1.37-.25v-1.27c2.11-.1,5.34-.59,7.01-.88-.15,1.57-.15,3.92-.15,7.15v6.66c0,4.31,2.25,5.54,4.46,5.54,1.81,0,3.63-.78,5.29-2.35v-11.42c0-2.65-.59-2.99-2.25-3.23l-1.57-.2v-1.27c3.14-.15,6.57-.69,7.69-.88v16.41c0,2.45.39,2.79,2.25,2.89l1.37.05v1.37Z"/><path d="M390.47,982.82v-1.37c3.14-.29,3.53-.54,3.53-3.77v-23.47c0-2.99-.24-3.28-3.38-3.67v-1.27c2.65-.29,5.68-1.08,7.25-1.67v30.08c0,3.23.29,3.48,3.48,3.77v1.37h-10.88Z"/><path d="M413.25,982.77c-.83.44-1.62.64-2.11.64-3.14,0-4.8-1.91-4.8-5.83v-14.26h-3.38l-.2-.59,1.32-1.42h2.25v-4.12c.93-.98,2.35-2.25,3.28-3.23l.73.1c-.1,2.06-.15,4.9-.15,7.25h5.58c.44.49.29,1.57-.29,2.01h-5.29v12.54c0,3.97,1.57,4.7,2.84,4.7,1.18,0,2.3-.44,2.99-.78l.44,1.27-3.23,1.71Z"/><path d="M418.5,982.82v-1.37c3.09-.29,3.43-.54,3.43-3.87v-10.09c0-3.04-.15-3.23-3.09-3.72v-1.18c2.55-.44,4.85-1.08,6.96-1.96v16.95c0,3.33.34,3.58,3.53,3.87v1.37h-10.83ZM423.59,955.82c-1.37,0-2.6-1.22-2.6-2.6,0-1.57,1.23-2.69,2.65-2.69s2.5,1.13,2.5,2.69c0,1.37-1.13,2.6-2.55,2.6Z"/><path d="M458.72,982.82v-1.37c2.89-.29,3.23-.49,3.23-3.92v-8.18c0-3.48-1.18-5.68-4.21-5.68-1.86,0-3.58,1.03-5.44,2.55.05.59.15,1.18.15,2.11v9.5c0,3.09.44,3.33,3.14,3.63v1.37h-10.49v-1.37c3.04-.29,3.48-.49,3.48-3.72v-8.43c0-3.63-1.13-5.63-4.12-5.63-1.96,0-3.87,1.32-5.39,2.55v11.51c0,3.23.34,3.43,3.14,3.72v1.37h-10.53v-1.37c3.23-.29,3.53-.49,3.53-3.72v-10.14c0-3.14-.2-3.33-2.94-3.82v-1.22c2.3-.34,4.61-.98,6.81-1.96v3.97c1.03-.78,2.06-1.62,3.63-2.55,1.22-.78,2.3-1.27,3.87-1.27,2.35,0,4.36,1.47,5.34,4.02,1.37-1.08,2.65-1.91,3.87-2.74,1.08-.69,2.45-1.27,3.87-1.27,3.82,0,6.17,2.74,6.17,7.55v9.46c0,3.28.29,3.43,3.09,3.72v1.37h-10.19Z"/><path d="M489.64,978.66c-3.14,3.92-6.57,4.75-8.13,4.75-5.98,0-9.6-4.9-9.6-10.53,0-3.33,1.18-6.42,3.18-8.57,2.06-2.3,4.75-3.58,7.3-3.58,4.26,0,7.5,3.67,7.5,7.59-.05.98-.2,1.42-.98,1.62-.98.2-7.25.64-13.08.83-.15,6.57,3.87,9.26,7.35,9.26,2.01,0,3.87-.83,5.68-2.5l.78,1.13ZM481.21,962.59c-2.25,0-4.46,2.11-5.14,6.08,2.74,0,5.49,0,8.38-.15.88,0,1.18-.25,1.18-.98.05-2.6-1.67-4.95-4.41-4.95Z"/><path d="M517.13,981.6c-1.03.2-4.7.78-7.59,1.81v-3.18c-.88.54-2.16,1.22-3.04,1.76-1.96,1.13-3.28,1.42-3.87,1.42-3.92,0-9.11-3.92-9.11-10.78s5.98-11.91,12.69-11.91c.69,0,2.3.1,3.33.54v-7.2c0-3.14-.34-3.23-3.82-3.53v-1.27c2.45-.34,5.88-1.03,7.69-1.67v29.54c0,2.55.34,2.89,2.16,2.99l1.57.1v1.37ZM509.53,965.13c-1.13-1.71-3.23-2.5-5.14-2.5-2.35,0-6.52,1.57-6.52,8.62,0,5.93,3.67,9.06,6.81,9.11,1.76,0,3.67-.88,4.85-1.76v-13.47Z"/><path d="M519.43,982.82v-1.37c3.09-.29,3.43-.54,3.43-3.87v-10.09c0-3.04-.15-3.23-3.09-3.72v-1.18c2.55-.44,4.85-1.08,6.96-1.96v16.95c0,3.33.34,3.58,3.53,3.87v1.37h-10.83ZM524.53,955.82c-1.37,0-2.6-1.22-2.6-2.6,0-1.57,1.23-2.69,2.65-2.69s2.5,1.13,2.5,2.69c0,1.37-1.13,2.6-2.55,2.6Z"/><path d="M550.55,978.66c-3.14,3.92-6.57,4.75-8.13,4.75-5.98,0-9.6-4.9-9.6-10.53,0-3.33,1.18-6.42,3.18-8.57,2.06-2.3,4.75-3.58,7.3-3.58,4.26,0,7.5,3.67,7.5,7.59-.05.98-.2,1.42-.98,1.62-.98.2-7.25.64-13.08.83-.15,6.57,3.87,9.26,7.35,9.26,2.01,0,3.87-.83,5.68-2.5l.78,1.13ZM542.12,962.59c-2.25,0-4.46,2.11-5.14,6.08,2.74,0,5.49,0,8.38-.15.88,0,1.18-.25,1.18-.98.05-2.6-1.67-4.95-4.41-4.95Z"/><path d="M578.03,981.6c-1.03.2-4.7.78-7.59,1.81v-3.18c-.88.54-2.16,1.22-3.04,1.76-1.96,1.13-3.28,1.42-3.87,1.42-3.92,0-9.11-3.92-9.11-10.78s5.98-11.91,12.69-11.91c.69,0,2.3.1,3.33.54v-7.2c0-3.14-.34-3.23-3.82-3.53v-1.27c2.45-.34,5.88-1.03,7.69-1.67v29.54c0,2.55.34,2.89,2.16,2.99l1.57.1v1.37ZM570.44,965.13c-1.13-1.71-3.23-2.5-5.14-2.5-2.35,0-6.52,1.57-6.52,8.62,0,5.93,3.67,9.06,6.81,9.11,1.76,0,3.67-.88,4.85-1.76v-13.47Z"/><path d="M598.17,978.66c-3.14,3.92-6.57,4.75-8.13,4.75-5.98,0-9.6-4.9-9.6-10.53,0-3.33,1.18-6.42,3.18-8.57,2.06-2.3,4.75-3.58,7.3-3.58,4.26,0,7.5,3.67,7.5,7.59-.05.98-.2,1.42-.98,1.62-.98.2-7.25.64-13.08.83-.15,6.57,3.87,9.26,7.35,9.26,2.01,0,3.87-.83,5.68-2.5l.78,1.13ZM589.75,962.59c-2.25,0-4.46,2.11-5.14,6.08,2.74,0,5.49,0,8.38-.15.88,0,1.18-.25,1.18-.98.05-2.6-1.67-4.95-4.41-4.95Z"/><path d="M614.15,967.14c-.88-2.84-2.16-4.8-5.15-4.8-1.71,0-3.04,1.22-3.04,3.18,0,2.11,1.42,3.09,4.16,4.36,4.21,2.01,6.32,3.48,6.32,6.71,0,4.51-4.12,6.81-7.99,6.81-2.55,0-4.8-.78-5.83-1.37-.25-1.42-.69-4.12-.88-5.73l1.42-.25c.88,3.14,2.6,5.68,6.03,5.68,1.86,0,3.43-1.27,3.43-3.33,0-2.21-1.32-3.33-3.92-4.61-3.43-1.67-6.22-3.23-6.22-6.76s3.04-6.32,7.64-6.32c2.06,0,3.72.49,4.7.64.15,1.18.49,4.26.74,5.44l-1.42.34Z"/><path d="M619.59,982.82v-1.37c3.09-.29,3.43-.54,3.43-3.87v-10.09c0-3.04-.15-3.23-3.09-3.72v-1.18c2.55-.44,4.85-1.08,6.96-1.96v16.95c0,3.33.34,3.58,3.53,3.87v1.37h-10.83ZM624.68,955.82c-1.37,0-2.6-1.22-2.6-2.6,0-1.57,1.23-2.69,2.65-2.69s2.5,1.13,2.5,2.69c0,1.37-1.13,2.6-2.55,2.6Z"/><path d="M639.28,975.67c-1.18.93-1.62,1.86-1.62,2.45,0,.88.83,1.86,3.04,1.86,1.81,0,3.87-.05,5.49-.05,3.14,0,7.15,1.03,7.15,5.88,0,5.1-6.03,9.9-12.54,9.9-5.54,0-8.53-3.23-8.62-6.12,0-1.08.44-2.01,1.22-2.79.98-1.03,2.89-2.65,4.02-3.53-1.76-.49-3.04-1.62-3.67-2.65-.44-.73-.59-1.62-.59-2.11,1.86-.69,3.53-2.06,4.51-3.38l1.62.54ZM641.64,976.16c-4.56,0-8.33-2.79-8.33-7.4,0-5.59,5-8.18,8.82-8.18,1.62,0,3.23.44,4.7,1.22,2.25,0,5.19-.39,6.57-.73l.29.44c-.29.78-1.08,2.16-1.81,2.6-.73,0-2.35-.2-3.04-.25.83,1.13,1.42,2.7,1.42,4.46,0,5.34-4.41,7.84-8.62,7.84ZM642.76,983.41c-2.4,0-3.48.29-4.36,1.03-1.37,1.13-2.35,2.6-2.35,4.02,0,2.69,2.79,4.7,6.57,4.7,4.65,0,7.3-2.4,7.3-5.54,0-1.67-.78-2.99-2.16-3.58-1.23-.54-2.94-.64-5-.64ZM641.64,962.14c-2.21,0-4.16,2.01-4.16,5.88s1.96,6.57,4.65,6.57c2.16-.1,4.07-1.91,4.07-5.88s-1.81-6.57-4.56-6.57Z"/><path d="M669.42,982.82v-1.37c2.84-.29,3.14-.64,3.14-3.97v-8.08c0-3.43-1.22-5.73-4.46-5.73-2.01,0-3.92,1.18-5.44,2.55v11.46c0,3.38.29,3.48,3.18,3.77v1.37h-10.58v-1.37c3.23-.34,3.53-.54,3.53-3.77v-10.09c0-3.19-.34-3.33-2.99-3.77v-1.27c2.4-.39,4.8-1.03,6.86-1.96v3.87c.98-.69,2.06-1.42,3.33-2.25,1.37-.88,2.65-1.47,4.07-1.47,3.92,0,6.37,2.89,6.37,7.64v9.31c0,3.33.29,3.48,3.14,3.77v1.37h-10.14Z"/><path d="M694.7,967.14c-.88-2.84-2.16-4.8-5.15-4.8-1.71,0-3.04,1.22-3.04,3.18,0,2.11,1.42,3.09,4.16,4.36,4.21,2.01,6.32,3.48,6.32,6.71,0,4.51-4.12,6.81-7.99,6.81-2.55,0-4.8-.78-5.83-1.37-.25-1.42-.69-4.12-.88-5.73l1.42-.25c.88,3.14,2.6,5.68,6.03,5.68,1.86,0,3.43-1.27,3.43-3.33,0-2.21-1.32-3.33-3.92-4.61-3.43-1.67-6.22-3.23-6.22-6.76s3.04-6.32,7.64-6.32c2.06,0,3.72.49,4.7.64.15,1.18.49,4.26.74,5.44l-1.42.34Z"/><path d="M709.35,982.77c-.83.44-1.62.64-2.11.64-3.14,0-4.8-1.91-4.8-5.83v-14.26h-3.38l-.2-.59,1.32-1.42h2.25v-4.12c.93-.98,2.35-2.25,3.28-3.23l.73.1c-.1,2.06-.15,4.9-.15,7.25h5.58c.44.49.29,1.57-.29,2.01h-5.29v12.54c0,3.97,1.57,4.7,2.84,4.7,1.18,0,2.3-.44,2.99-.78l.44,1.27-3.23,1.71Z"/><path d="M737.67,981.69c-2.35.34-5,.98-7.5,1.71v-3.77c-2.65,2.21-4.8,3.77-7.5,3.77-3.28,0-6.12-2.01-6.12-7.35v-9.5c0-2.65-.39-2.94-1.62-3.18l-1.37-.25v-1.27c2.11-.1,5.34-.59,7.01-.88-.15,1.57-.15,3.92-.15,7.15v6.66c0,4.31,2.25,5.54,4.46,5.54,1.81,0,3.63-.78,5.29-2.35v-11.42c0-2.65-.59-2.99-2.25-3.23l-1.57-.2v-1.27c3.14-.15,6.57-.69,7.69-.88v16.41c0,2.45.39,2.79,2.25,2.89l1.37.05v1.37Z"/><path d="M763.79,981.6c-1.03.2-4.7.78-7.59,1.81v-3.18c-.88.54-2.16,1.22-3.04,1.76-1.96,1.13-3.28,1.42-3.87,1.42-3.92,0-9.11-3.92-9.11-10.78s5.98-11.91,12.69-11.91c.69,0,2.3.1,3.33.54v-7.2c0-3.14-.34-3.23-3.82-3.53v-1.27c2.45-.34,5.88-1.03,7.69-1.67v29.54c0,2.55.34,2.89,2.16,2.99l1.57.1v1.37ZM756.2,965.13c-1.13-1.71-3.23-2.5-5.14-2.5-2.35,0-6.52,1.57-6.52,8.62,0,5.93,3.67,9.06,6.81,9.11,1.76,0,3.67-.88,4.85-1.76v-13.47Z"/><path d="M783.93,978.66c-3.14,3.92-6.57,4.75-8.13,4.75-5.98,0-9.6-4.9-9.6-10.53,0-3.33,1.18-6.42,3.18-8.57,2.06-2.3,4.75-3.58,7.3-3.58,4.26,0,7.5,3.67,7.5,7.59-.05.98-.2,1.42-.98,1.62-.98.2-7.25.64-13.08.83-.15,6.57,3.87,9.26,7.35,9.26,2.01,0,3.87-.83,5.68-2.5l.78,1.13ZM775.5,962.59c-2.25,0-4.46,2.11-5.14,6.08,2.74,0,5.49,0,8.38-.15.88,0,1.18-.25,1.18-.98.05-2.6-1.67-4.95-4.41-4.95Z"/><path d="M798.39,982.82h-11.27v-1.37c3.09-.29,3.38-.54,3.38-3.72v-10.19c0-3.23-.2-3.38-3.04-3.72v-1.22c2.4-.39,4.61-.98,6.91-2.01v5.39c1.71-2.55,3.77-5.24,6.22-5.24,1.81,0,2.84,1.13,2.84,2.35,0,1.13-.78,2.2-1.67,2.69-.49.29-.88.25-1.27-.1-.74-.74-1.32-1.22-2.21-1.22-1.03,0-2.84,1.52-3.92,4.02v9.21c0,3.23.25,3.48,4.02,3.77v1.37Z"/><path d="M822.89,978.66c-3.14,3.92-6.57,4.75-8.13,4.75-5.98,0-9.6-4.9-9.6-10.53,0-3.33,1.18-6.42,3.18-8.57,2.06-2.3,4.75-3.58,7.3-3.58,4.26,0,7.5,3.67,7.5,7.59-.05.98-.2,1.42-.98,1.62-.98.2-7.25.64-13.08.83-.15,6.57,3.87,9.26,7.35,9.26,2.01,0,3.87-.83,5.68-2.5l.78,1.13ZM814.46,962.59c-2.25,0-4.46,2.11-5.14,6.08,2.74,0,5.49,0,8.38-.15.88,0,1.18-.25,1.18-.98.05-2.6-1.67-4.95-4.41-4.95Z"/><path d="M840.13,982.82v-1.37c2.84-.29,3.14-.64,3.14-3.97v-8.08c0-3.43-1.22-5.73-4.46-5.73-2.01,0-3.92,1.18-5.44,2.55v11.46c0,3.38.29,3.48,3.18,3.77v1.37h-10.58v-1.37c3.23-.34,3.53-.54,3.53-3.77v-10.09c0-3.19-.34-3.33-2.99-3.77v-1.27c2.4-.39,4.8-1.03,6.86-1.96v3.87c.98-.69,2.06-1.42,3.33-2.25,1.37-.88,2.65-1.47,4.07-1.47,3.92,0,6.37,2.89,6.37,7.64v9.31c0,3.33.29,3.48,3.14,3.77v1.37h-10.14Z"/><path d="M876.83,981.6c-1.03.2-4.7.78-7.59,1.81v-3.18c-.88.54-2.16,1.22-3.04,1.76-1.96,1.13-3.28,1.42-3.87,1.42-3.92,0-9.11-3.92-9.11-10.78s5.98-11.91,12.69-11.91c.69,0,2.3.1,3.33.54v-7.2c0-3.14-.34-3.23-3.82-3.53v-1.27c2.45-.34,5.88-1.03,7.69-1.67v29.54c0,2.55.34,2.89,2.16,2.99l1.57.1v1.37ZM869.24,965.13c-1.13-1.71-3.23-2.5-5.14-2.5-2.35,0-6.52,1.57-6.52,8.62,0,5.93,3.67,9.06,6.81,9.11,1.76,0,3.67-.88,4.85-1.76v-13.47Z"/><path d="M896.97,978.66c-3.14,3.92-6.57,4.75-8.13,4.75-5.98,0-9.6-4.9-9.6-10.53,0-3.33,1.18-6.42,3.18-8.57,2.06-2.3,4.75-3.58,7.3-3.58,4.26,0,7.5,3.67,7.5,7.59-.05.98-.2,1.42-.98,1.62-.98.2-7.25.64-13.08.83-.15,6.57,3.87,9.26,7.35,9.26,2.01,0,3.87-.83,5.68-2.5l.78,1.13ZM888.55,962.59c-2.25,0-4.46,2.11-5.14,6.08,2.74,0,5.49,0,8.38-.15.88,0,1.18-.25,1.18-.98.05-2.6-1.67-4.95-4.41-4.95Z"/><path d="M520.75,1007.17c8.04,0,13.07,4.34,13.07,11.52,0,5.5-2.32,10.54-6.84,13.46-3.61,2.32-6.58,2.97-11.61,2.97h-10.02l.13-.52c3.35-.6,3.61-.86,4.21-4.04l3.57-18.83c.6-3.22.47-3.44-2.92-4.04l.09-.52h10.32ZM512.71,1030.26c-.69,3.7,1.89,3.91,4.47,3.91,8.86,0,13.37-7.65,13.37-15.57,0-6.97-3.78-10.62-10.41-10.62-2.75,0-3.35.47-3.7,2.37l-3.74,19.91Z"/><path d="M543.75,1031.64c-2.02,2.75-4.13,4-5.2,4s-1.33-1.2-.52-4.51c1.12-4.47,1.81-7.35,2.45-10.19.34-1.55.34-2.02,0-2.02s-1.25.52-2.75,1.94l-.3-.52c1.81-1.98,4-3.7,5.29-3.7,1.12,0,.95,1.55.13,4.86-.82,3.48-1.63,6.88-2.41,10.36-.21.95-.09,1.33.17,1.33.6,0,1.72-.73,2.84-2.02l.3.47ZM545.13,1009.19c0,1.25-.9,2.15-1.85,2.15s-1.5-.73-1.5-1.55c0-1.12.73-2.19,1.98-2.19.99,0,1.38.73,1.38,1.59Z"/><path d="M551.41,1030.74c-.34.34-1.08,1.08-1.08,1.76,0,.86,1.38,1.76,3.4,2.84,4.73,2.54,5.76,4.13,5.76,5.76,0,3.53-6.15,6.28-10.23,6.28-3.7,0-7.4-2.11-7.4-4.86,0-2.02,3.57-4.3,7.83-6.58-1.33-.9-1.72-1.59-1.72-2.19s.99-1.72,2.75-3.01h.69ZM556.95,1042.17c0-1.08-.56-1.98-1.98-2.97-1.72-1.12-3.83-2.32-4.73-2.79-2.92,1.59-5.5,3.53-5.5,5.46,0,2.37,3.1,4.13,6.19,4.13,4.13,0,6.02-1.85,6.02-3.83ZM547.11,1026.26c0-3.87,2.32-7.05,4.9-8.47,1.29-.73,2.79-1.16,3.83-1.16,1.29,0,2.11.34,3.05,1.16,1.81.13,3.44-.3,4.47-1.07l.26.43c-1.16,1.63-2.92,2.32-4.04,2.32.13.6.21.99.21,1.85,0,3.78-2.02,6.19-3.57,7.48-1.59,1.2-4,2.32-5.5,2.28-2.41-.09-3.61-2.37-3.61-4.82ZM557.25,1021.96c0-2.58-1.08-4.13-3.01-4.13-2.37,0-4.51,3.05-4.51,7.87,0,2.67,1.2,3.96,2.88,3.96,2.45,0,4.64-3.05,4.64-7.7Z"/><path d="M570.75,1031.64c-2.02,2.75-4.13,4-5.2,4s-1.33-1.2-.52-4.51c1.12-4.47,1.81-7.35,2.45-10.19.34-1.55.34-2.02,0-2.02s-1.25.52-2.75,1.94l-.3-.52c1.81-1.98,4-3.7,5.29-3.7,1.12,0,.95,1.55.13,4.86-.82,3.48-1.63,6.88-2.41,10.36-.21.95-.09,1.33.17,1.33.6,0,1.72-.73,2.84-2.02l.3.47ZM572.13,1009.19c0,1.25-.9,2.15-1.85,2.15s-1.5-.73-1.5-1.55c0-1.12.73-2.19,1.98-2.19.99,0,1.38.73,1.38,1.59Z"/><path d="M584.13,1018.18c-1.25.04-2.62.13-3.91.13-2.41,11.48-2.24,10.66-2.58,12.43-.34,2.02-.17,2.62.47,2.62.69,0,1.76-.69,3.44-2.41l.3.34c-1.25,1.85-3.87,4.34-5.55,4.34-1.5,0-2.02-1.07-.95-6.15l2.41-11.18h-3.05l-.09-.26.99-.9h2.41l.95-4.26c.69-.43,1.89-1.33,2.67-2.11l.34.13c-.43,1.59-.99,3.96-1.5,6.24h4.39l-.73,1.03Z"/><path d="M600.94,1031.77c-1.93,2.67-3.7,3.87-4.94,3.87-1.38,0-1.25-1.89-.56-5.29l.56-2.8c-2.41,3.74-4.6,5.55-5.5,6.32-1.72,1.42-2.58,1.76-3.48,1.76-1.42,0-2.49-1.63-2.49-4.6,0-4.26,2.06-8.77,4.99-11.39,2.24-1.89,4.9-3.01,7.31-3.01,1.42,0,3.27.56,4,.69-.64,2.11-2.06,8.04-3.14,14.23-.21,1.25-.09,1.68.3,1.68.6,0,1.5-.69,2.67-1.98l.3.52ZM593.89,1029.23c1.16-1.46,2.37-3.31,2.88-5.46.34-1.55.9-4.08,1.16-5.16-.6-.3-2.02-.6-3.27-.6-4.64,0-7.27,6.36-7.27,12.08,0,2.49.73,3.27,1.42,3.27,1.2,0,2.97-1.42,5.07-4.13Z"/><path d="M610.36,1031.64c-1.98,2.75-4,4-5.03,4s-1.38-1.2-.64-4.51c1.5-7.31,3.35-16.12,4.64-22.53.43-2.28.26-2.49-1.46-2.71-.39-.04-.73-.04-1.12-.09l.13-.52c2.28-.3,3.61-.64,4.82-1.12.52-.17.69-.26.9-.26.26,0,.3.21.09,1.12-1.94,8.56-4.86,22.66-5.63,26.83-.22.95-.04,1.38.26,1.38.56,0,1.63-.77,2.75-2.06l.3.47Z"/><path d="M637.92,1031.64c-1.98,2.75-4.08,4-4.99,4-1.2,0-1.5-1.25-.73-5.03l.56-2.67c-3.31,4.86-6.92,7.7-9.07,7.7-1.59,0-2.75-1.68-2.75-5.03,0-3.96,1.76-8.6,4.73-11.14,2.06-1.81,4.9-2.84,6.62-2.84,1.25,0,2.15.13,2.79.47l1.63-8.77c.39-1.98.21-2.11-1.5-2.28-.43,0-.99,0-1.38-.04l.09-.52c2.06-.3,3.57-.64,4.9-1.12.6-.21.9-.3,1.12-.3s.3.26.09,1.12c-2.02,8.69-5.2,24.64-5.46,26.36-.17,1.25-.09,1.68.21,1.68.56,0,1.68-.77,2.79-2.06l.34.47ZM631.68,1028.07c1.25-1.81,1.5-2.67,1.93-4.47l1.03-4.47c-.52-.6-2.19-1.2-4.13-1.2-4.73,0-6.75,7.09-6.75,11.95,0,2.32.56,3.66,1.68,3.66,1.42,0,3.66-1.68,6.24-5.46Z"/><path d="M645.01,1035.64c-1.72,0-4.26-1.07-4.26-6.15,0-3.53,1.38-8.13,4.77-10.75,1.46-1.16,3.78-2.11,5.29-2.11,1.81,0,2.84,1.42,2.84,2.88,0,3.78-5.38,5.76-10.06,6.79-.09.77-.13,1.72-.13,2.02,0,2.54.82,5.38,3.44,5.38,1.63,0,3.57-1.03,5.55-3.22l.34.56c-2.54,3.18-5.42,4.6-7.78,4.6ZM643.77,1025.32c5.93-.95,7.44-3.1,7.44-5.25,0-1.12-.73-2.02-2.19-2.02-2.02,0-4.3,1.81-5.25,7.27Z"/><path d="M666.38,1018.52c0,.64-.69,1.63-1.25,1.63-.3,0-.39-.3-.99-.82-.6-.6-1.42-1.12-2.36-1.12-1.42,0-2.54,1.29-2.54,2.84s1.33,2.45,2.97,3.87c2.45,2.02,2.97,3.18,2.97,4.6,0,2.84-4.51,6.11-7.35,6.11-1.72,0-3.44-1.25-3.44-2.58,0-.64.77-1.76,1.38-1.76.17,0,.26.04.43.21,1.33,1.94,2.58,2.45,3.7,2.45,1.38,0,3.05-1.2,3.05-2.88,0-1.12-.43-2.06-2.28-3.66-1.63-1.42-3.44-2.71-3.44-4.69,0-1.16.43-2.62,2.15-4.13.99-.9,2.75-1.98,4.26-1.98,1.63,0,2.75.9,2.75,1.89Z"/><path d="M675.5,1031.64c-2.02,2.75-4.13,4-5.2,4s-1.33-1.2-.52-4.51c1.12-4.47,1.81-7.35,2.45-10.19.34-1.55.34-2.02,0-2.02s-1.25.52-2.75,1.94l-.3-.52c1.81-1.98,4-3.7,5.29-3.7,1.12,0,.95,1.55.13,4.86-.82,3.48-1.63,6.88-2.41,10.36-.21.95-.09,1.33.17,1.33.6,0,1.72-.73,2.84-2.02l.3.47ZM676.88,1009.19c0,1.25-.9,2.15-1.85,2.15s-1.5-.73-1.5-1.55c0-1.12.73-2.19,1.98-2.19.99,0,1.38.73,1.38,1.59Z"/><path d="M683.15,1030.74c-.34.34-1.08,1.08-1.08,1.76,0,.86,1.38,1.76,3.4,2.84,4.73,2.54,5.76,4.13,5.76,5.76,0,3.53-6.15,6.28-10.23,6.28-3.7,0-7.4-2.11-7.4-4.86,0-2.02,3.57-4.3,7.83-6.58-1.33-.9-1.72-1.59-1.72-2.19s.99-1.72,2.75-3.01h.69ZM688.7,1042.17c0-1.08-.56-1.98-1.98-2.97-1.72-1.12-3.83-2.32-4.73-2.79-2.92,1.59-5.5,3.53-5.5,5.46,0,2.37,3.1,4.13,6.19,4.13,4.13,0,6.02-1.85,6.02-3.83ZM678.85,1026.26c0-3.87,2.32-7.05,4.9-8.47,1.29-.73,2.79-1.16,3.83-1.16,1.29,0,2.11.34,3.05,1.16,1.81.13,3.44-.3,4.47-1.07l.26.43c-1.16,1.63-2.92,2.32-4.04,2.32.13.6.21.99.21,1.85,0,3.78-2.02,6.19-3.57,7.48-1.59,1.2-4,2.32-5.5,2.28-2.41-.09-3.61-2.37-3.61-4.82ZM689,1021.96c0-2.58-1.08-4.13-3.01-4.13-2.37,0-4.51,3.05-4.51,7.87,0,2.67,1.2,3.96,2.88,3.96,2.45,0,4.64-3.05,4.64-7.7Z"/><path d="M712.78,1031.68c-2.02,2.67-4,3.96-5.07,3.96-1.16,0-1.46-1.2-.64-4.51.82-3.4,1.33-5.68,2.06-8.73.56-2.71.56-3.7-.6-3.7-1.76,0-5.25,3.27-7.61,7.35-.77,1.38-1.12,2.37-1.46,3.7-.34,1.38-.77,3.48-1.16,5.16-.95.17-1.72.43-2.45.69l-.26-.21c1.16-4.82,2.37-9.63,3.4-14.45.34-1.55.17-1.89-.17-1.89-.39,0-1.2.47-2.58,1.85l-.34-.47c2.02-2.62,4.04-3.78,4.94-3.78,1.2,0,1.25,1.55.21,5.76l-.73,3.05c2.97-4.6,7.35-8.81,10.1-8.81,1.59,0,2.37.95.99,6.66-.73,2.92-1.25,5.42-1.89,8.08-.26,1.42-.17,1.98.21,1.98.6,0,1.55-.82,2.75-2.19l.3.52Z"/></svg>