<?xml version="1.0" encoding="UTF-8"?><svg id="flyer" xmlns="http://www.w3.org/2000/svg" width="1319.38" height="1008.93" viewBox="0 0 1319.38 1008.93"><defs><style>.cls-1{fill:none;}.cls-2{fill:#f4f4f4;}.cls-3{fill:#fff;}</style></defs><path class="cls-3" d="M1274.04,541.53H337.93v136.54c.86.01,1.71.02,2.57.03-.71,101.06-.09,111.27.6,212.33,4.93.02,8.79-2.56,13.77-2,2.89.32,5.56,1.7,5.56,1.7l1.98-1.19,4.28,1.87,2.1-.57,7.86,3.25,4.35-.65,2.98,2.73c.76.21.86-1.02,1.7-.78.55.16,2.15,1.2,2.15,1.2l2.46-2.08s.42.61,1.39.88c.84.24,1.09-.56,1.96-.31.78.22,1.3-.86,1.3-.86l2.5,1.29,3.99-3.96s8.12,11.87,9.78,12.34c.84.24,1.67.47,2.48.7,1.45.41,2.85.8,4.18,1.18.81.23,1.58.44,2.33.65,4.76,1.34,8.22,2.3,9.11,2.52,3.55.88,10.51-2.04,10.51-2.04l2.73,1.15,1.01-1.03,5.6,6.24s8.45,1.39,12.66,1.86c4.92.54,9.82.86,14.68.88,1.97-100.73,2.58-135.17,5.34-235.89.42,0,.83,0,1.25,0v-26.23h436.3v31c2.58,2.25,5.39,4.99,7.64,6.52,2.85,1.94,3.54.8,4.82,3.71,3.96,1.66,8.2,3.46,12.04,5.18,6.58,6.19,10.36,10.87,20.81,14.83,4.11,1.56,18.39-3.04,23.08-5.95.63-.39,1.02-.3,1.69-.12,5.13,1.41,10.5,3.02,15.7,4.48,7.38-1.27,14.74-2.55,22.11-3.83,5.9,3.03,11.8,6.06,17.7,9.08,5.02.07,10.05.14,15.06.21,3.33-4.27,6.59-8.51,9.93-12.77,1.33-1.7,1.41-1.86,3.92-3.53,1.24-.83,5.52-3.64,7.26-4.8,5.94,3.09,11.69,6.39,17.53,9.49.39.21.62.17.89-.15,3.33-3.95,6.67-8.02,10.02-12,3.9.74,7.83,1.51,11.72,2.24,3.22-2.36,5.94-5.25,9.28-7.48,3.34-2.23,7.28-3.79,10.73-5.9l.73-75.16h131.99c-.02-20.64-.02-43.07,0-66.81Z"/><path class="cls-2" d="M51.61,29.65c.8,177.83.07,463.83-3.43,607.98-3.5,144.15,1.38-56.73-.84,34.35-2.21,91.08-11.19,193.62-21.09,288.88,44.37,5.25,88.8,8.25,133.2,12.65,13.22-101.8,21.54-200.16,25.43-302.47,1.84.04,3.68.05,5.52.08-1.13,99.07-4.61,197.14-9.7,296.11,44.37,1.83,88.73,3.7,133.09,5.66,7.07-100.29,15.05-199.3,18.44-299.83,1.55.02,3.09.04,4.64.06-.71,101.06-.1,111.27.6,212.33,4.95.02,8.83-2.56,13.84-2,2.9.32,5.59,1.7,5.59,1.7l1.99-1.19,4.3,1.87,2.11-.57,7.9,3.25,4.37-.65,3,2.73c.76.21.87-1.02,1.71-.78.55.16,2.16,1.2,2.16,1.2l2.48-2.08s.43.61,1.4.88c.85.24,1.1-.56,1.97-.31.79.22,1.31-.86,1.31-.86l2.51,1.29,4.01-3.96s8.16,11.87,9.83,12.34c.85.24,1.68.47,2.5.7,1.46.41,2.87.8,4.2,1.18.81.23,1.59.44,2.34.65,4.78,1.34,8.26,2.3,9.15,2.52,3.57.88,10.57-2.04,10.57-2.04l2.74,1.15,1.02-1.03,5.63,6.24s8.5,1.39,12.72,1.86c4.95.54,9.87.86,14.76.88,1.98-100.73,2.59-135.17,5.37-235.89,1.24,0,2.49.02,3.73.03-.09,100.77.99,201.54,1.74,302.31,44.49.2,88.97.39,133.46.61,1.94-100.68,4.56-201.35,6.86-302.03,2.15.01,4.3.03,6.45.04.39,99.66-.71,199.29-1.19,298.95,44.47.67,88.95,1.33,133.42,2.01,3.05-99.96,7.99-199.85,9.81-299.82,1.85.02,3.69.03,5.54.05.89,101.56,4.02,203.08,5.15,304.64,44.49.06,88.98.14,133.47.27.03-101.31-.75-202.66-.69-303.95,3.06,2.35,6.83,6.25,9.7,8.19s3.56.8,4.85,3.71c3.98,1.66,8.24,3.46,12.1,5.18,6.61,6.19,10.42,10.87,20.92,14.83,4.14,1.56,18.49-3.04,23.2-5.95.63-.39,1.03-.3,1.7-.12,5.16,1.41,10.55,3.02,15.78,4.48,7.41-1.27,14.81-2.55,22.22-3.83,5.93,3.03,11.86,6.06,17.79,9.08,5.05.07,10.1.14,15.14.21,3.35-4.27,6.62-8.51,9.98-12.77,1.34-1.7,1.42-1.86,3.94-3.53,1.25-.83,5.55-3.64,7.29-4.8,5.97,3.09,11.75,6.39,17.62,9.49.39.21.63.17.89-.15,3.35-3.95,6.7-8.02,10.07-12,3.92.74,7.87,1.51,11.78,2.24,3.24-2.36,5.97-5.25,9.32-7.48,3.35-2.23,7.31-3.79,10.78-5.9.35,103.29,8.05,201.58,18.07,304.39,44.42-3.74,88.84-6.34,133.29-10.63-10.57-96.16-17.45-198.71-17.76-290.7-.31-91.99.36,111.43-.12-34.81-.48-146.23.89-436.88,1.31-617.31-408.57-6.97-816.19-9.33-1224.95.18Z"/><rect class="cls-1" x="212.49" y="240.65" width="880.39" height="394.39"/><path d="M220.87,277.32v-29.42h-5.54v-3.53h30.12v10.77h-3.91v-7.25h-16.25v11.97h10.71v3.53h-10.71v13.92h16.57v-7.43h3.91v10.96h-30.43v-3.53h5.54Z"/><path d="M258.3,277.32v-29.42h-5.48v-3.53h18.02c7.06,0,11.66,4.03,11.66,10.02,0,5.17-3.47,8.88-8.95,9.89l8.82,13.04h3.78v3.53h-6.62l-10.77-16.32h-6.05v12.79h5.36v3.53h-15.25v-3.53h5.48ZM262.71,247.9v13.29h7.56c4.98,0,7.88-2.65,7.88-6.74s-2.9-6.55-7.88-6.55h-7.56Z"/><path d="M328.29,244.37h14.3c11.03,0,18.46,7.31,18.46,18.21s-7.43,18.27-18.52,18.27h-14.24v-3.53h5.48v-29.42h-5.48v-3.53ZM356.64,262.58c0-8.88-5.67-14.62-14.49-14.62h-4.03v29.3h4.03c8.88,0,14.49-5.73,14.49-14.68Z"/><path d="M369.93,268.5v-20.6h-4.47v-3.53h13.73v3.53h-4.85v20.6c0,5.61,3.21,9.01,8.38,9.01s8.25-3.34,8.25-8.88v-20.73h-4.79v-3.53h13.55v3.53h-4.47v20.6c0,7.94-4.91,12.98-12.6,12.98s-12.73-5.1-12.73-12.98Z"/><path d="M455.99,277.32v-29.42h-10.46v-3.53h25.33v3.53h-10.52v29.42h10.52v3.53h-25.33v-3.53h10.46Z"/><path d="M483.2,277.32v-29.42h-4.6v-3.53h10.08l16.51,31-.06-27.47h-4.54v-3.53h12.85v3.53h-4.6v32.95h-5.04l-16.95-31.82.06,28.29h4.6v3.53h-12.92v-3.53h4.6Z"/><path d="M525.03,277.32h6.55v-29.42h-10.4v7.25h-3.91v-10.77h33.01v10.77h-3.91v-7.25h-10.4v29.42h6.55v3.53h-17.52v-3.53Z"/><path d="M561.07,277.32v-29.42h-5.54v-3.53h30.12v10.77h-3.91v-7.25h-16.25v11.97h10.71v3.53h-10.71v13.92h16.57v-7.43h3.91v10.96h-30.43v-3.53h5.54Z"/><path d="M598.49,277.32v-29.42h-5.48v-3.53h18.02c7.06,0,11.66,4.03,11.66,10.02,0,5.17-3.46,8.88-8.95,9.89l8.82,13.04h3.78v3.53h-6.62l-10.77-16.32h-6.05v12.79h5.35v3.53h-15.25v-3.53h5.48ZM602.9,247.9v13.29h7.56c4.98,0,7.88-2.65,7.88-6.74s-2.9-6.55-7.88-6.55h-7.56Z"/><path d="M636.67,277.32v-29.42h-5.54v-3.53h30.12v10.77h-3.91v-7.25h-16.25v11.97h10.71v3.53h-10.71v13.92h16.57v-7.43h3.91v10.96h-30.43v-3.53h5.54Z"/><path d="M675.29,269.82v3.28c3.34,2.96,7.37,4.73,10.96,4.73,5.04,0,8.13-2.58,8.13-6.62,0-3.02-1.83-4.79-6.17-6.05l-7.81-2.14c-5.99-1.7-8.88-4.73-8.88-9.26,0-6.17,4.66-10.02,11.84-10.02,3.65,0,7.37,1.32,10.21,3.78v-3.91h3.78v11.53h-3.78v-4.03c-2.27-2.21-6.24-3.78-9.83-3.78-4.91,0-7.88,2.14-7.88,5.86,0,2.77,1.95,4.73,5.92,5.86l8.25,2.33c5.92,1.7,8.82,4.79,8.82,9.45,0,6.43-5.1,10.65-12.29,10.65-3.84,0-8-1.64-11.28-4.54v4.54h-3.78v-11.66h3.78Z"/><path d="M713.09,269.82v3.28c3.34,2.96,7.37,4.73,10.96,4.73,5.04,0,8.13-2.58,8.13-6.62,0-3.02-1.83-4.79-6.17-6.05l-7.81-2.14c-5.99-1.7-8.88-4.73-8.88-9.26,0-6.17,4.66-10.02,11.84-10.02,3.65,0,7.37,1.32,10.21,3.78v-3.91h3.78v11.53h-3.78v-4.03c-2.27-2.21-6.24-3.78-9.83-3.78-4.91,0-7.88,2.14-7.88,5.86,0,2.77,1.95,4.73,5.92,5.86l8.25,2.33c5.92,1.7,8.82,4.79,8.82,9.45,0,6.43-5.1,10.65-12.29,10.65-3.84,0-8-1.64-11.28-4.54v4.54h-3.78v-11.66h3.78Z"/><path d="M750.07,277.32v-29.42h-5.54v-3.53h30.12v10.77h-3.91v-7.25h-16.25v11.97h10.71v3.53h-10.71v13.92h16.57v-7.43h3.91v10.96h-30.43v-3.53h5.54Z"/><path d="M787.49,277.32v-29.42h-5.48v-3.53h18.02c7.06,0,11.66,4.03,11.66,10.02,0,5.17-3.46,8.88-8.95,9.89l8.82,13.04h3.78v3.53h-6.62l-10.77-16.32h-6.05v12.79h5.35v3.53h-15.25v-3.53h5.48ZM791.9,247.9v13.29h7.56c4.98,0,7.88-2.65,7.88-6.74s-2.9-6.55-7.88-6.55h-7.56Z"/><path d="M825.67,277.32v-29.42h-5.54v-3.53h30.12v10.77h-3.91v-7.25h-16.25v11.97h10.71v3.53h-10.71v13.92h16.57v-7.43h3.91v10.96h-30.43v-3.53h5.54Z"/><path d="M865.23,277.32h6.55v-29.42h-10.39v7.25h-3.91v-10.77h33.01v10.77h-3.91v-7.25h-10.4v29.42h6.55v3.53h-17.52v-3.53Z"/><path d="M947.38,277.32v-29.42h-10.46v-3.53h25.33v3.53h-10.52v29.42h10.52v3.53h-25.33v-3.53h10.46Z"/><path d="M1010.63,277.32l11.84-32.95h5.42l11.91,32.95h3.34v3.53h-12.29v-3.53h4.47l-2.96-8.51h-14.55l-2.96,8.51h4.54v3.53h-12.16v-3.53h3.4ZM1031.24,265.54l-6.11-17.64-6.17,17.64h12.29Z"/><path d="M1054.23,277.32h6.55v-29.42h-10.4v7.25h-3.91v-10.77h33.01v10.77h-3.91v-7.25h-10.39v29.42h6.55v3.53h-17.51v-3.53Z"/><path d="M213.5,346.37h12.29v3.53h-4.47l10.21,28.79,10.14-28.79h-4.6v-3.53h12.22v3.53h-3.34l-11.84,32.95h-5.42l-11.91-32.95h-3.28v-3.53Z"/><path d="M266.99,379.32v-29.42h-10.46v-3.53h25.33v3.53h-10.52v29.42h10.52v3.53h-25.33v-3.53h10.46Z"/><path d="M290.49,346.37h14.3c11.03,0,18.46,7.31,18.46,18.21s-7.43,18.27-18.52,18.27h-14.24v-3.53h5.48v-29.42h-5.48v-3.53ZM318.84,364.58c0-8.88-5.67-14.62-14.49-14.62h-4.03v29.3h4.03c8.88,0,14.49-5.73,14.49-14.68Z"/><path d="M334.27,379.32v-29.42h-5.54v-3.53h30.12v10.77h-3.91v-7.25h-16.25v11.97h10.71v3.53h-10.71v13.92h16.57v-7.43h3.91v10.96h-30.43v-3.53h5.54Z"/><path d="M406.53,379.32v-29.42h-3.97v-3.53h9.89l8,19.53,7.94-19.53h9.89v3.53h-3.97v29.42h3.97v3.53h-12.35v-3.53h4.41l.06-28.86-8.57,20.67h-2.96l-8.57-20.79.06,28.98h4.41v3.53h-12.22v-3.53h3.97Z"/><path d="M447.67,379.32v-29.42h-5.54v-3.53h30.12v10.77h-3.91v-7.25h-16.25v11.97h10.71v3.53h-10.71v13.92h16.57v-7.43h3.91v10.96h-30.43v-3.53h5.54Z"/><path d="M485.09,379.32v-29.42h-5.48v-3.53h18.02c7.06,0,11.66,4.03,11.66,10.02,0,5.17-3.47,8.88-8.95,9.89l8.82,13.04h3.78v3.53h-6.62l-10.77-16.32h-6.05v12.79h5.36v3.53h-15.25v-3.53h5.48ZM489.5,349.9v13.29h7.56c4.98,0,7.88-2.65,7.88-6.74s-2.9-6.55-7.88-6.55h-7.56Z"/><path d="M523.27,379.32v-29.42h-5.54v-3.53h30.12v10.77h-3.91v-7.25h-16.25v11.97h10.71v3.53h-10.71v13.92h16.57v-7.43h3.91v10.96h-30.43v-3.53h5.54Z"/><path d="M609.64,364.83l-.38,5.42h-3.28l-.32-7.81c7.31-.5,11.59-3.4,11.59-7.5,0-3.53-2.96-5.73-8.06-5.73-3.09,0-5.8.57-11.28,2.9l-1.26-3.4c5.23-2.33,8.95-3.15,12.79-3.15,7.37,0,11.91,3.65,11.91,9.01s-4.41,9.2-11.72,10.27ZM607.62,383.48c-2.33,0-4.16-1.83-4.16-4.1s1.83-4.16,4.16-4.16,4.16,1.83,4.16,4.16-1.83,4.1-4.16,4.1Z"/><path d="M254.21,501.44v-20.08h-3.78v-2.41h21.24v7.35h-2.67v-4.94h-11.78v8.39h7.4v2.41h-7.4v9.29h5.03v2.41h-11.82v-2.41h3.78Z"/><path d="M278.16,488.02c2.58-1.85,5.68-2.88,8.51-2.88,4.9,0,7.44,2.19,7.44,6.58v9.8h3.44v2.32h-6.28v-3.01c-2.88,2.28-5.46,3.44-7.87,3.44-3.78,0-6.32-2.15-6.32-5.25,0-2.84,1.98-4.56,5.89-5.12l8.3-1.16v-.86c0-2.97-1.55-4.3-4.99-4.3-2.11,0-4.64.99-6.84,2.49l-1.29-2.06ZM283.97,502c2.15,0,4.3-.86,7.31-2.88v-4.43l-7.83,1.2c-2.41.39-3.48,1.38-3.48,3.1s1.63,3.01,4,3.01Z"/><path d="M305.51,501.52v-13.67h-3.31v-2.32h6.19v3.05c1.85-2.28,4-3.4,6.28-3.4,3.87,0,6.23,2.49,6.23,6.36v9.98h3.31v2.32h-9.29v-2.32h3.1v-9.33c0-2.84-1.42-4.47-4.13-4.47-1.94,0-3.4.69-5.5,2.75v11.05h3.1v2.32h-9.29v-2.32h3.31Z"/><path d="M334.62,498.86c-1.12.47-1.76,1.33-1.76,2.24,0,1.29.99,1.98,2.84,1.98h8.73c3.05,0,4.73,1.5,4.73,3.74,0,3.91-4.6,6.06-12.13,6.06-6.62,0-9.76-1.5-9.76-4.34,0-1.85,1.68-3.31,4.73-3.78-1.12-.64-1.72-1.63-1.72-2.88,0-1.59,1.08-2.88,2.88-3.7-2.06-1.29-3.4-3.4-3.4-5.85,0-4.17,3.53-7.22,8.26-7.22,2.36,0,4.43.77,5.93,2.06l.52-.95c1.12-2.19,2.28-2.92,4.43-2.92.65,0,1.29.09,2.19.21l-.17,2.67c-1.16-.17-1.81-.26-2.28-.26-1.46,0-2.28.47-3.05,1.63l-.56.77c.82,1.16,1.29,2.49,1.29,4,0,4.04-3.61,7.14-8.3,7.14-1.2,0-2.37-.22-3.4-.6ZM337.16,510.77c5.5,0,9.07-1.2,9.07-3.48,0-1.03-.82-1.76-2.49-1.76h-8.38c-.56,0-1.08-.04-1.55-.13-2.41.56-3.7,1.38-3.7,2.71,0,1.76,2.24,2.67,7.05,2.67ZM343.57,492.32c0-2.84-2.41-4.99-5.55-4.99s-5.5,2.15-5.5,4.99,2.36,4.94,5.5,4.94,5.55-2.15,5.55-4.94Z"/><path d="M365.41,504.28c-6.15,0-10.62-4.04-10.62-9.55s4.21-9.59,9.89-9.59,9.46,3.83,9.46,9.2v1.03h-16.47c.34,3.87,3.48,6.49,7.95,6.49,2.71,0,4.9-.6,7.91-2.15l.99,2.15c-3.27,1.72-5.8,2.41-9.12,2.41ZM357.76,493.27h13.54c-.39-3.44-2.97-5.76-6.62-5.76s-6.36,2.32-6.92,5.76Z"/><path d="M406.56,501.52v-13.67h-2.15v-2.32h4.77v2.32c1.38-1.81,2.67-2.67,4.26-2.67,1.89,0,3.4,1.12,4,2.92,1.46-2.06,2.88-2.92,4.43-2.92,2.54,0,4.3,1.89,4.3,4.73v11.61h2.11v2.32h-6.54v-2.32h1.81v-11.01c0-1.81-.86-2.84-2.45-2.84-1.25,0-2.11.52-3.4,2.06v11.78h1.81v2.32h-6.28v-2.32h1.81v-11.01c0-1.81-.86-2.84-2.41-2.84-1.29,0-2.15.47-3.44,2.02v11.83h1.81v2.32h-6.58v-2.32h2.15Z"/><path d="M433.82,501.52h7.35v-13.67h-7.35v-2.32h10.28v16h7.22v2.32h-17.5v-2.32ZM442.6,481.53c-1.46,0-2.62-1.16-2.62-2.62s1.16-2.62,2.62-2.62,2.62,1.16,2.62,2.62-1.16,2.62-2.62,2.62Z"/><path d="M463.62,498.86c-1.12.47-1.76,1.33-1.76,2.24,0,1.29.99,1.98,2.84,1.98h8.73c3.05,0,4.73,1.5,4.73,3.74,0,3.91-4.6,6.06-12.13,6.06-6.62,0-9.76-1.5-9.76-4.34,0-1.85,1.68-3.31,4.73-3.78-1.12-.64-1.72-1.63-1.72-2.88,0-1.59,1.08-2.88,2.88-3.7-2.06-1.29-3.4-3.4-3.4-5.85,0-4.17,3.53-7.22,8.26-7.22,2.36,0,4.43.77,5.93,2.06l.52-.95c1.12-2.19,2.28-2.92,4.43-2.92.65,0,1.29.09,2.19.21l-.17,2.67c-1.16-.17-1.81-.26-2.28-.26-1.46,0-2.28.47-3.05,1.63l-.56.77c.82,1.16,1.29,2.49,1.29,4,0,4.04-3.61,7.14-8.3,7.14-1.2,0-2.37-.22-3.4-.6ZM466.16,510.77c5.5,0,9.07-1.2,9.07-3.48,0-1.03-.82-1.76-2.49-1.76h-8.38c-.56,0-1.08-.04-1.55-.13-2.41.56-3.7,1.38-3.7,2.71,0,1.76,2.24,2.67,7.05,2.67ZM472.57,492.32c0-2.84-2.41-4.99-5.55-4.99s-5.5,2.15-5.5,4.99,2.36,4.94,5.5,4.94,5.55-2.15,5.55-4.94Z"/><path d="M511.91,501.52v-22.79h-3.31v-2.32h6.19v12.17c1.85-2.28,4-3.4,6.28-3.4,3.87,0,6.23,2.49,6.23,6.36v9.98h3.31v2.32h-9.29v-2.32h3.1v-9.33c0-2.84-1.42-4.47-4.13-4.47-1.94,0-3.4.69-5.5,2.75v11.05h3.1v2.32h-9.29v-2.32h3.31Z"/><path d="M546.01,504.28c-6.15,0-10.62-4.04-10.62-9.55s4.21-9.59,9.89-9.59,9.46,3.83,9.46,9.2v1.03h-16.47c.34,3.87,3.48,6.49,7.95,6.49,2.71,0,4.9-.6,7.91-2.15l.99,2.15c-3.27,1.72-5.8,2.41-9.12,2.41ZM538.36,493.27h13.54c-.39-3.44-2.97-5.76-6.62-5.76s-6.36,2.32-6.92,5.76Z"/><path d="M567.17,501.52v-13.67h-6.19v-2.32h9.07v6.19l2.49-3.18c1.76-2.37,3.53-3.4,5.63-3.4,1.5,0,2.97.39,4.6,1.25l-1.03,2.49c-1.76-.73-2.75-1.03-3.65-1.03-1.81,0-3.01.56-4.52,2.19l-3.53,3.65v7.83h6.58v2.32h-15.65v-2.32h6.19Z"/><path d="M596.79,504.28c-1.63,0-2.88-1.29-2.88-2.88s1.25-2.84,2.88-2.84,2.88,1.25,2.88,2.84-1.25,2.88-2.88,2.88Z"/><path d="M622.59,504.28c-1.63,0-2.88-1.29-2.88-2.88s1.25-2.84,2.88-2.84,2.88,1.25,2.88,2.84-1.25,2.88-2.88,2.88Z"/></svg>